<mxfile host="app.diagrams.net" modified="2023-06-16T17:07:47.687Z" agent="Mozilla/5.0 (Windows NT 10.0; Win64; x64) AppleWebKit/537.36 (KHTML, like Gecko) Chrome/113.0.0.0 Safari/537.36 OPR/99.0.0.0" etag="jgJG_maGqJxrZ7dVs_RT" version="21.4.0" type="github">
  <diagram name="Page-1" id="5f0bae14-7c28-e335-631c-24af17079c00">
    <mxGraphModel dx="2143" dy="2028" grid="1" gridSize="10" guides="1" tooltips="1" connect="1" arrows="1" fold="1" page="1" pageScale="1" pageWidth="1100" pageHeight="850" background="none" math="0" shadow="0">
      <root>
        <mxCell id="0" />
        <mxCell id="1" parent="0" />
        <mxCell id="39150e848f15840c-1" value="Onboardingscreen" style="verticalAlign=top;align=left;spacingTop=8;spacingLeft=2;spacingRight=12;shape=cube;size=10;direction=south;fontStyle=4;html=1;rounded=0;shadow=0;comic=0;labelBackgroundColor=none;strokeWidth=1;fontFamily=Verdana;fontSize=12" parent="1" vertex="1">
          <mxGeometry x="30" y="-830" width="330" height="290" as="geometry" />
        </mxCell>
        <mxCell id="39150e848f15840c-2" value="Homescreens" style="verticalAlign=top;align=left;spacingTop=8;spacingLeft=2;spacingRight=12;shape=cube;size=10;direction=south;fontStyle=4;html=1;rounded=0;shadow=0;comic=0;labelBackgroundColor=none;strokeWidth=1;fontFamily=Verdana;fontSize=12" parent="1" vertex="1">
          <mxGeometry x="225" y="-510" width="330" height="220" as="geometry" />
        </mxCell>
        <mxCell id="39150e848f15840c-3" value="Introductionscreen" style="verticalAlign=top;align=left;spacingTop=8;spacingLeft=2;spacingRight=12;shape=cube;size=10;direction=south;fontStyle=4;html=1;rounded=0;shadow=0;comic=0;labelBackgroundColor=none;strokeWidth=1;fontFamily=Verdana;fontSize=12" parent="1" vertex="1">
          <mxGeometry x="410" y="-740" width="230" height="120" as="geometry" />
        </mxCell>
        <mxCell id="39150e848f15840c-7" value="TÃ¤gliche TODOs mit farbiger Markierung" style="shape=component;align=left;spacingLeft=36;rounded=0;shadow=0;comic=0;labelBackgroundColor=none;strokeWidth=1;fontFamily=Verdana;fontSize=12;html=1;" parent="1" vertex="1">
          <mxGeometry x="245" y="-460" width="290" height="60" as="geometry" />
        </mxCell>
        <mxCell id="39150e848f15840c-10" value="ProgressButton" style="shape=component;align=left;spacingLeft=36;rounded=0;shadow=0;comic=0;labelBackgroundColor=none;strokeWidth=1;fontFamily=Verdana;fontSize=12;html=1;" parent="1" vertex="1">
          <mxGeometry x="50" y="-780" width="140" height="60" as="geometry" />
        </mxCell>
        <mxCell id="GZp-4GX_bm0-hnHdVh08-3" value="Skipbutton" style="shape=component;align=left;spacingLeft=36;rounded=0;shadow=0;comic=0;labelBackgroundColor=none;strokeWidth=1;fontFamily=Verdana;fontSize=12;html=1;" parent="1" vertex="1">
          <mxGeometry x="50" y="-705" width="140" height="60" as="geometry" />
        </mxCell>
        <mxCell id="GZp-4GX_bm0-hnHdVh08-4" value="Swipeable" style="shape=component;align=left;spacingLeft=36;rounded=0;shadow=0;comic=0;labelBackgroundColor=none;strokeWidth=1;fontFamily=Verdana;fontSize=12;html=1;" parent="1" vertex="1">
          <mxGeometry x="200" y="-705" width="140" height="60" as="geometry" />
        </mxCell>
        <mxCell id="GZp-4GX_bm0-hnHdVh08-5" value="Storytelling" style="shape=component;align=left;spacingLeft=36;rounded=0;shadow=0;comic=0;labelBackgroundColor=none;strokeWidth=1;fontFamily=Verdana;fontSize=12;html=1;" parent="1" vertex="1">
          <mxGeometry x="200" y="-780" width="140" height="60" as="geometry" />
        </mxCell>
        <mxCell id="GZp-4GX_bm0-hnHdVh08-6" value="Step by Step Fragebogen" style="shape=component;align=left;spacingLeft=36;rounded=0;shadow=0;comic=0;labelBackgroundColor=none;strokeWidth=1;fontFamily=Verdana;fontSize=12;html=1;" parent="1" vertex="1">
          <mxGeometry x="420" y="-700" width="200" height="60" as="geometry" />
        </mxCell>
        <mxCell id="GZp-4GX_bm0-hnHdVh08-7" value="Roadmap" style="shape=component;align=left;spacingLeft=36;rounded=0;shadow=0;comic=0;labelBackgroundColor=none;strokeWidth=1;fontFamily=Verdana;fontSize=12;html=1;" parent="1" vertex="1">
          <mxGeometry x="245" y="-390" width="110" height="60" as="geometry" />
        </mxCell>
        <mxCell id="GZp-4GX_bm0-hnHdVh08-10" value="Habitscreens" style="verticalAlign=top;align=left;spacingTop=8;spacingLeft=2;spacingRight=12;shape=cube;size=10;direction=south;fontStyle=4;html=1;rounded=0;shadow=0;comic=0;labelBackgroundColor=none;strokeWidth=1;fontFamily=Verdana;fontSize=12" parent="1" vertex="1">
          <mxGeometry x="90" y="80" width="340" height="295" as="geometry" />
        </mxCell>
        <mxCell id="GZp-4GX_bm0-hnHdVh08-11" value="Fortschrittsverfolgung" style="shape=component;align=left;spacingLeft=36;rounded=0;shadow=0;comic=0;labelBackgroundColor=none;strokeWidth=1;fontFamily=Verdana;fontSize=12;html=1;" parent="1" vertex="1">
          <mxGeometry x="110" y="125" width="180" height="60" as="geometry" />
        </mxCell>
        <mxCell id="GZp-4GX_bm0-hnHdVh08-12" value="Interatkive / Personalisierbare TODO-Liste" style="shape=component;align=left;spacingLeft=36;rounded=0;shadow=0;comic=0;labelBackgroundColor=none;strokeWidth=1;fontFamily=Verdana;fontSize=12;html=1;" parent="1" vertex="1">
          <mxGeometry x="110" y="205" width="300" height="60" as="geometry" />
        </mxCell>
        <mxCell id="GZp-4GX_bm0-hnHdVh08-13" value="Feedback und Statistik" style="shape=component;align=left;spacingLeft=36;rounded=0;shadow=0;comic=0;labelBackgroundColor=none;strokeWidth=1;fontFamily=Verdana;fontSize=12;html=1;" parent="1" vertex="1">
          <mxGeometry x="110" y="295" width="190" height="60" as="geometry" />
        </mxCell>
        <mxCell id="GZp-4GX_bm0-hnHdVh08-14" style="edgeStyle=orthogonalEdgeStyle;rounded=0;html=1;labelBackgroundColor=none;startArrow=none;startFill=0;startSize=8;endArrow=none;endFill=0;endSize=16;fontFamily=Verdana;fontSize=12;entryX=0;entryY=0;entryDx=0;entryDy=165;entryPerimeter=0;" parent="1" target="GZp-4GX_bm0-hnHdVh08-10" edge="1">
          <mxGeometry relative="1" as="geometry">
            <Array as="points">
              <mxPoint x="385" y="-270" />
              <mxPoint x="125" y="-270" />
              <mxPoint x="125" y="60" />
              <mxPoint x="265" y="60" />
            </Array>
            <mxPoint x="385" y="-290" as="sourcePoint" />
            <mxPoint x="549.9999999999995" y="-249.99999999999955" as="targetPoint" />
          </mxGeometry>
        </mxCell>
        <mxCell id="GZp-4GX_bm0-hnHdVh08-15" value="Design mit Grafiken" style="shape=component;align=left;spacingLeft=36;rounded=0;shadow=0;comic=0;labelBackgroundColor=none;strokeWidth=1;fontFamily=Verdana;fontSize=12;html=1;" parent="1" vertex="1">
          <mxGeometry x="365" y="-390" width="170" height="60" as="geometry" />
        </mxCell>
        <mxCell id="GZp-4GX_bm0-hnHdVh08-16" value="Design mit Grafiken" style="shape=component;align=left;spacingLeft=36;rounded=0;shadow=0;comic=0;labelBackgroundColor=none;strokeWidth=1;fontFamily=Verdana;fontSize=12;html=1;" parent="1" vertex="1">
          <mxGeometry x="50" y="-620" width="170" height="60" as="geometry" />
        </mxCell>
        <mxCell id="GZp-4GX_bm0-hnHdVh08-17" value="Schlaftagebuch" style="verticalAlign=top;align=left;spacingTop=8;spacingLeft=2;spacingRight=12;shape=cube;size=10;direction=south;fontStyle=4;html=1;rounded=0;shadow=0;comic=0;labelBackgroundColor=none;strokeWidth=1;fontFamily=Verdana;fontSize=12" parent="1" vertex="1">
          <mxGeometry x="405" y="-240" width="230" height="190" as="geometry" />
        </mxCell>
        <mxCell id="GZp-4GX_bm0-hnHdVh08-18" value="Interaktive Elemente" style="shape=component;align=left;spacingLeft=36;rounded=0;shadow=0;comic=0;labelBackgroundColor=none;strokeWidth=1;fontFamily=Verdana;fontSize=12;html=1;" parent="1" vertex="1">
          <mxGeometry x="425" y="-195" width="180" height="60" as="geometry" />
        </mxCell>
        <mxCell id="GZp-4GX_bm0-hnHdVh08-21" value="Restriktionsscreen" style="verticalAlign=top;align=left;spacingTop=8;spacingLeft=2;spacingRight=12;shape=cube;size=10;direction=south;fontStyle=4;html=1;rounded=0;shadow=0;comic=0;labelBackgroundColor=none;strokeWidth=1;fontFamily=Verdana;fontSize=12" parent="1" vertex="1">
          <mxGeometry x="450" y="80" width="220" height="195" as="geometry" />
        </mxCell>
        <mxCell id="GZp-4GX_bm0-hnHdVh08-22" value="Design mit Grafiken" style="shape=component;align=left;spacingLeft=36;rounded=0;shadow=0;comic=0;labelBackgroundColor=none;strokeWidth=1;fontFamily=Verdana;fontSize=12;html=1;" parent="1" vertex="1">
          <mxGeometry x="460" y="125" width="180" height="60" as="geometry" />
        </mxCell>
        <mxCell id="GZp-4GX_bm0-hnHdVh08-24" value="Interaktive Elemente" style="shape=component;align=left;spacingLeft=36;rounded=0;shadow=0;comic=0;labelBackgroundColor=none;strokeWidth=1;fontFamily=Verdana;fontSize=12;html=1;" parent="1" vertex="1">
          <mxGeometry x="460" y="200" width="180" height="60" as="geometry" />
        </mxCell>
        <mxCell id="GZp-4GX_bm0-hnHdVh08-25" value="Profilscreen" style="verticalAlign=top;align=left;spacingTop=8;spacingLeft=2;spacingRight=12;shape=cube;size=10;direction=south;fontStyle=4;html=1;rounded=0;shadow=0;comic=0;labelBackgroundColor=none;strokeWidth=1;fontFamily=Verdana;fontSize=12" parent="1" vertex="1">
          <mxGeometry x="155" y="-240" width="230" height="280" as="geometry" />
        </mxCell>
        <mxCell id="GZp-4GX_bm0-hnHdVh08-26" value="Interaktive Elemente" style="shape=component;align=left;spacingLeft=36;rounded=0;shadow=0;comic=0;labelBackgroundColor=none;strokeWidth=1;fontFamily=Verdana;fontSize=12;html=1;" parent="1" vertex="1">
          <mxGeometry x="165" y="-200" width="180" height="60" as="geometry" />
        </mxCell>
        <mxCell id="GZp-4GX_bm0-hnHdVh08-27" value="Feedback und Statistik" style="shape=component;align=left;spacingLeft=36;rounded=0;shadow=0;comic=0;labelBackgroundColor=none;strokeWidth=1;fontFamily=Verdana;fontSize=12;html=1;" parent="1" vertex="1">
          <mxGeometry x="160" y="-122.5" width="190" height="60" as="geometry" />
        </mxCell>
        <mxCell id="GZp-4GX_bm0-hnHdVh08-28" value="Personalisierung" style="shape=component;align=left;spacingLeft=36;rounded=0;shadow=0;comic=0;labelBackgroundColor=none;strokeWidth=1;fontFamily=Verdana;fontSize=12;html=1;" parent="1" vertex="1">
          <mxGeometry x="425" y="-122.5" width="150" height="60" as="geometry" />
        </mxCell>
        <mxCell id="SHw61sotzAxXoNDyE2m5-4" style="edgeStyle=orthogonalEdgeStyle;rounded=0;html=1;labelBackgroundColor=none;startArrow=none;startFill=0;startSize=8;endArrow=none;endFill=0;endSize=16;fontFamily=Verdana;fontSize=12;entryX=0;entryY=0;entryDx=65;entryDy=230;entryPerimeter=0;exitX=0;exitY=0;exitDx=140;exitDy=0;exitPerimeter=0;" edge="1" parent="1" source="39150e848f15840c-1" target="39150e848f15840c-3">
          <mxGeometry relative="1" as="geometry">
            <Array as="points">
              <mxPoint x="360" y="-675" />
            </Array>
            <mxPoint x="639.97" y="-530" as="sourcePoint" />
            <mxPoint x="809.97" y="-160" as="targetPoint" />
          </mxGeometry>
        </mxCell>
        <mxCell id="SHw61sotzAxXoNDyE2m5-5" style="edgeStyle=orthogonalEdgeStyle;rounded=0;html=1;labelBackgroundColor=none;startArrow=none;startFill=0;startSize=8;endArrow=none;endFill=0;endSize=16;fontFamily=Verdana;fontSize=12;entryX=0;entryY=0;entryDx=0;entryDy=160;entryPerimeter=0;exitX=0;exitY=0;exitDx=120;exitDy=120;exitPerimeter=0;" edge="1" parent="1" source="39150e848f15840c-3" target="39150e848f15840c-2">
          <mxGeometry relative="1" as="geometry">
            <Array as="points">
              <mxPoint x="520" y="-540" />
              <mxPoint x="390" y="-540" />
            </Array>
            <mxPoint x="470" y="-555.03" as="sourcePoint" />
            <mxPoint x="520" y="-540.03" as="targetPoint" />
          </mxGeometry>
        </mxCell>
        <mxCell id="SHw61sotzAxXoNDyE2m5-7" style="edgeStyle=orthogonalEdgeStyle;rounded=0;html=1;labelBackgroundColor=none;startArrow=none;startFill=0;startSize=8;endArrow=none;endFill=0;endSize=16;fontFamily=Verdana;fontSize=12;entryX=0;entryY=0;entryDx=0;entryDy=110;entryPerimeter=0;exitX=0;exitY=0;exitDx=140;exitDy=0;exitPerimeter=0;" edge="1" parent="1" target="GZp-4GX_bm0-hnHdVh08-25">
          <mxGeometry relative="1" as="geometry">
            <Array as="points">
              <mxPoint x="275" y="-270" />
            </Array>
            <mxPoint x="270" y="-270" as="sourcePoint" />
            <mxPoint x="320" y="-255" as="targetPoint" />
          </mxGeometry>
        </mxCell>
        <mxCell id="SHw61sotzAxXoNDyE2m5-8" style="edgeStyle=orthogonalEdgeStyle;rounded=0;html=1;labelBackgroundColor=none;startArrow=none;startFill=0;startSize=8;endArrow=none;endFill=0;endSize=16;fontFamily=Verdana;fontSize=12;entryX=0;entryY=0;entryDx=0;entryDy=110;entryPerimeter=0;" edge="1" parent="1">
          <mxGeometry relative="1" as="geometry">
            <Array as="points">
              <mxPoint x="522.5" y="-270" />
            </Array>
            <mxPoint x="380" y="-270" as="sourcePoint" />
            <mxPoint x="522.5" y="-240" as="targetPoint" />
          </mxGeometry>
        </mxCell>
        <mxCell id="SHw61sotzAxXoNDyE2m5-9" style="edgeStyle=orthogonalEdgeStyle;rounded=0;html=1;labelBackgroundColor=none;startArrow=none;startFill=0;startSize=8;endArrow=none;endFill=0;endSize=16;fontFamily=Verdana;fontSize=12;entryX=0;entryY=0;entryDx=0;entryDy=110;entryPerimeter=0;" edge="1" parent="1">
          <mxGeometry relative="1" as="geometry">
            <Array as="points">
              <mxPoint x="670" y="-270" />
              <mxPoint x="670" y="60" />
              <mxPoint x="563" y="60" />
            </Array>
            <mxPoint x="520" y="-270" as="sourcePoint" />
            <mxPoint x="562.5" y="80" as="targetPoint" />
          </mxGeometry>
        </mxCell>
      </root>
    </mxGraphModel>
  </diagram>
</mxfile>
